<mxfile host="app.diagrams.net" modified="2023-06-06T15:59:28.498Z" agent="Mozilla/5.0 (Windows NT 10.0; Win64; x64) AppleWebKit/537.36 (KHTML, like Gecko) Chrome/113.0.0.0 Safari/537.36" etag="yyFvIp5K0oR_8gmvl1Ud" version="21.3.7" type="device" pages="3">
  <diagram name="Página-1" id="1w_DeECfMuDDpmLS-dLR">
    <mxGraphModel dx="1434" dy="699" grid="1" gridSize="10" guides="1" tooltips="1" connect="1" arrows="1" fold="1" page="1" pageScale="1" pageWidth="827" pageHeight="1169" math="0" shadow="0">
      <root>
        <mxCell id="0" />
        <mxCell id="1" parent="0" />
        <mxCell id="oIWiM_lApPMRn2i5tA39-24" value="" style="rounded=0;whiteSpace=wrap;html=1;" parent="1" vertex="1">
          <mxGeometry x="115" y="150" width="755" height="920" as="geometry" />
        </mxCell>
        <mxCell id="oIWiM_lApPMRn2i5tA39-1" value="Médico" style="shape=umlActor;verticalLabelPosition=bottom;verticalAlign=top;html=1;outlineConnect=0;" parent="1" vertex="1">
          <mxGeometry x="50" y="600" width="30" height="60" as="geometry" />
        </mxCell>
        <mxCell id="oIWiM_lApPMRn2i5tA39-4" value="&lt;br&gt;Registar &lt;br style=&quot;font-size: 19px;&quot;&gt;Consulta" style="ellipse;whiteSpace=wrap;html=1;verticalAlign=top;fontSize=19;" parent="1" vertex="1">
          <mxGeometry x="400" y="350" width="110" height="100" as="geometry" />
        </mxCell>
        <mxCell id="oIWiM_lApPMRn2i5tA39-25" value="&lt;font color=&quot;#0d0d0d&quot;&gt;&lt;br style=&quot;border-color: var(--border-color); font-family: Helvetica; font-size: 19px; font-style: normal; font-variant-ligatures: normal; font-variant-caps: normal; font-weight: 400; letter-spacing: normal; orphans: 2; text-align: center; text-indent: 0px; text-transform: none; widows: 2; word-spacing: 0px; -webkit-text-stroke-width: 0px; text-decoration-thickness: initial; text-decoration-style: initial; text-decoration-color: initial;&quot;&gt;&lt;span style=&quot;font-family: Helvetica; font-size: 19px; font-style: normal; font-variant-ligatures: normal; font-variant-caps: normal; font-weight: 400; letter-spacing: normal; orphans: 2; text-align: center; text-indent: 0px; text-transform: none; widows: 2; word-spacing: 0px; -webkit-text-stroke-width: 0px; text-decoration-thickness: initial; text-decoration-style: initial; text-decoration-color: initial; float: none; display: inline !important;&quot;&gt;Receitar&amp;nbsp;&lt;/span&gt;&lt;br style=&quot;border-color: var(--border-color); font-family: Helvetica; font-size: 19px; font-style: normal; font-variant-ligatures: normal; font-variant-caps: normal; font-weight: 400; letter-spacing: normal; orphans: 2; text-align: center; text-indent: 0px; text-transform: none; widows: 2; word-spacing: 0px; -webkit-text-stroke-width: 0px; text-decoration-thickness: initial; text-decoration-style: initial; text-decoration-color: initial;&quot;&gt;&lt;span style=&quot;font-family: Helvetica; font-size: 19px; font-style: normal; font-variant-ligatures: normal; font-variant-caps: normal; font-weight: 400; letter-spacing: normal; orphans: 2; text-align: center; text-indent: 0px; text-transform: none; widows: 2; word-spacing: 0px; -webkit-text-stroke-width: 0px; text-decoration-thickness: initial; text-decoration-style: initial; text-decoration-color: initial; float: none; display: inline !important;&quot;&gt;Medicamento&lt;/span&gt;&lt;/font&gt;" style="ellipse;whiteSpace=wrap;html=1;fontSize=19;verticalAlign=top;" parent="1" vertex="1">
          <mxGeometry x="620" y="230" width="140" height="110" as="geometry" />
        </mxCell>
        <mxCell id="oIWiM_lApPMRn2i5tA39-29" value="" style="endArrow=block;dashed=1;endFill=0;endSize=12;html=1;rounded=0;entryX=0.952;entryY=0.333;entryDx=0;entryDy=0;entryPerimeter=0;" parent="1" source="oIWiM_lApPMRn2i5tA39-25" target="oIWiM_lApPMRn2i5tA39-4" edge="1">
          <mxGeometry width="160" relative="1" as="geometry">
            <mxPoint x="430" y="490" as="sourcePoint" />
            <mxPoint x="320" y="495" as="targetPoint" />
          </mxGeometry>
        </mxCell>
        <mxCell id="EmzO-rkjlvO0Dj43OR_y-12" value="&amp;lt;&amp;lt;extend&amp;gt;&amp;gt;" style="edgeLabel;html=1;align=center;verticalAlign=middle;resizable=0;points=[];" parent="oIWiM_lApPMRn2i5tA39-29" vertex="1" connectable="0">
          <mxGeometry x="-0.1534" y="1" relative="1" as="geometry">
            <mxPoint x="-1" as="offset" />
          </mxGeometry>
        </mxCell>
        <mxCell id="oIWiM_lApPMRn2i5tA39-33" value="&lt;font style=&quot;font-size: 19px;&quot;&gt;Aceso&lt;br&gt;Calendário&lt;/font&gt;" style="ellipse;whiteSpace=wrap;html=1;aspect=fixed;" parent="1" vertex="1">
          <mxGeometry x="430" y="670" width="120" height="120" as="geometry" />
        </mxCell>
        <mxCell id="oIWiM_lApPMRn2i5tA39-34" value="" style="endArrow=none;html=1;rounded=0;" parent="1" source="oIWiM_lApPMRn2i5tA39-33" edge="1">
          <mxGeometry width="50" height="50" relative="1" as="geometry">
            <mxPoint x="65" y="680" as="sourcePoint" />
            <mxPoint x="90" y="640" as="targetPoint" />
          </mxGeometry>
        </mxCell>
        <mxCell id="RvO5elhk4QBF8d52R7ZJ-1" value="&lt;font style=&quot;font-size: 19px;&quot;&gt;Acesso&lt;br&gt;Relatórios&lt;/font&gt;" style="ellipse;whiteSpace=wrap;html=1;aspect=fixed;" parent="1" vertex="1">
          <mxGeometry x="414" y="830" width="110" height="110" as="geometry" />
        </mxCell>
        <mxCell id="RvO5elhk4QBF8d52R7ZJ-2" value="" style="endArrow=none;html=1;rounded=0;" parent="1" target="RvO5elhk4QBF8d52R7ZJ-1" edge="1">
          <mxGeometry width="50" height="50" relative="1" as="geometry">
            <mxPoint x="90" y="640" as="sourcePoint" />
            <mxPoint x="180" y="690" as="targetPoint" />
          </mxGeometry>
        </mxCell>
        <mxCell id="RvO5elhk4QBF8d52R7ZJ-3" value="&lt;font style=&quot;font-size: 16px;&quot;&gt;Regista antecedentes de saúde e medicação habitual&lt;/font&gt;" style="ellipse;whiteSpace=wrap;html=1;aspect=fixed;" parent="1" vertex="1">
          <mxGeometry x="180" y="210" width="130" height="130" as="geometry" />
        </mxCell>
        <mxCell id="guI348JS_D7rri318Q_A-6" value="Enfermeira" style="shape=umlActor;verticalLabelPosition=bottom;verticalAlign=top;html=1;outlineConnect=0;" parent="1" vertex="1">
          <mxGeometry x="910" y="450" width="30" height="60" as="geometry" />
        </mxCell>
        <mxCell id="guI348JS_D7rri318Q_A-7" value="" style="endArrow=none;html=1;rounded=0;exitX=0.936;exitY=0.3;exitDx=0;exitDy=0;exitPerimeter=0;" parent="1" source="RvO5elhk4QBF8d52R7ZJ-1" edge="1">
          <mxGeometry width="50" height="50" relative="1" as="geometry">
            <mxPoint x="400" y="600" as="sourcePoint" />
            <mxPoint x="890" y="500" as="targetPoint" />
          </mxGeometry>
        </mxCell>
        <mxCell id="guI348JS_D7rri318Q_A-8" value="" style="endArrow=none;html=1;rounded=0;" parent="1" source="oIWiM_lApPMRn2i5tA39-33" edge="1">
          <mxGeometry width="50" height="50" relative="1" as="geometry">
            <mxPoint x="470" y="510" as="sourcePoint" />
            <mxPoint x="890" y="500" as="targetPoint" />
          </mxGeometry>
        </mxCell>
        <mxCell id="guI348JS_D7rri318Q_A-11" value="&lt;font style=&quot;font-size: 19px;&quot;&gt;Recolha de Dados&lt;/font&gt;" style="ellipse;whiteSpace=wrap;html=1;aspect=fixed;" parent="1" vertex="1">
          <mxGeometry x="560" y="450" width="120" height="120" as="geometry" />
        </mxCell>
        <mxCell id="EmzO-rkjlvO0Dj43OR_y-1" value="" style="endArrow=none;html=1;rounded=0;exitX=1;exitY=0.5;exitDx=0;exitDy=0;" parent="1" source="guI348JS_D7rri318Q_A-11" edge="1">
          <mxGeometry width="50" height="50" relative="1" as="geometry">
            <mxPoint x="690" y="460" as="sourcePoint" />
            <mxPoint x="890" y="500" as="targetPoint" />
          </mxGeometry>
        </mxCell>
        <mxCell id="EmzO-rkjlvO0Dj43OR_y-6" value="&amp;lt;&amp;lt;include&amp;gt;&amp;gt;" style="endArrow=block;dashed=1;endFill=0;endSize=12;html=1;rounded=0;exitX=0;exitY=0.5;exitDx=0;exitDy=0;entryX=1;entryY=0.5;entryDx=0;entryDy=0;" parent="1" source="guI348JS_D7rri318Q_A-11" target="qijQWYyviOywbdNgCcTW-2" edge="1">
          <mxGeometry width="160" relative="1" as="geometry">
            <mxPoint x="575" y="449.5" as="sourcePoint" />
            <mxPoint x="285" y="449.5" as="targetPoint" />
          </mxGeometry>
        </mxCell>
        <mxCell id="EmzO-rkjlvO0Dj43OR_y-9" value="" style="endArrow=none;html=1;rounded=0;" parent="1" target="RvO5elhk4QBF8d52R7ZJ-3" edge="1">
          <mxGeometry width="50" height="50" relative="1" as="geometry">
            <mxPoint x="90" y="640" as="sourcePoint" />
            <mxPoint x="140" y="470" as="targetPoint" />
          </mxGeometry>
        </mxCell>
        <mxCell id="EmzO-rkjlvO0Dj43OR_y-10" value="" style="endArrow=none;html=1;rounded=0;entryX=0.074;entryY=0.694;entryDx=0;entryDy=0;entryPerimeter=0;" parent="1" target="qijQWYyviOywbdNgCcTW-2" edge="1">
          <mxGeometry width="50" height="50" relative="1" as="geometry">
            <mxPoint x="90" y="640" as="sourcePoint" />
            <mxPoint x="160" y="470" as="targetPoint" />
          </mxGeometry>
        </mxCell>
        <mxCell id="qijQWYyviOywbdNgCcTW-2" value="&lt;font style=&quot;font-size: 19px;&quot;&gt;Faz Consulta&lt;/font&gt;" style="ellipse;whiteSpace=wrap;html=1;aspect=fixed;" parent="1" vertex="1">
          <mxGeometry x="240" y="470" width="90" height="90" as="geometry" />
        </mxCell>
        <mxCell id="qijQWYyviOywbdNgCcTW-4" value="" style="endArrow=block;dashed=1;endFill=0;endSize=12;html=1;rounded=0;exitX=1;exitY=0;exitDx=0;exitDy=0;entryX=0.103;entryY=0.789;entryDx=0;entryDy=0;entryPerimeter=0;" parent="1" source="qijQWYyviOywbdNgCcTW-2" target="oIWiM_lApPMRn2i5tA39-4" edge="1">
          <mxGeometry width="160" relative="1" as="geometry">
            <mxPoint x="330" y="520" as="sourcePoint" />
            <mxPoint x="490" y="520" as="targetPoint" />
            <Array as="points" />
          </mxGeometry>
        </mxCell>
        <mxCell id="qijQWYyviOywbdNgCcTW-5" value="&amp;lt;&amp;lt;include&amp;gt;&amp;gt;" style="edgeLabel;html=1;align=center;verticalAlign=middle;resizable=0;points=[];" parent="qijQWYyviOywbdNgCcTW-4" vertex="1" connectable="0">
          <mxGeometry x="0.3628" y="-2" relative="1" as="geometry">
            <mxPoint x="-22" y="5" as="offset" />
          </mxGeometry>
        </mxCell>
      </root>
    </mxGraphModel>
  </diagram>
  <diagram id="nk8O6r01lYEmOdhttZfm" name="Página-2">
    <mxGraphModel dx="1434" dy="699" grid="1" gridSize="10" guides="1" tooltips="1" connect="1" arrows="1" fold="1" page="1" pageScale="1" pageWidth="827" pageHeight="1169" math="0" shadow="0">
      <root>
        <mxCell id="0" />
        <mxCell id="1" parent="0" />
        <mxCell id="QAnONWeoFSv54y2Q4ifa-3" value="" style="rounded=0;whiteSpace=wrap;html=1;" parent="1" vertex="1">
          <mxGeometry x="120" y="90" width="690" height="840" as="geometry" />
        </mxCell>
        <mxCell id="QAnONWeoFSv54y2Q4ifa-1" value="Administrativo" style="shape=umlActor;verticalLabelPosition=bottom;verticalAlign=top;html=1;outlineConnect=0;" parent="1" vertex="1">
          <mxGeometry x="50" y="340" width="30" height="60" as="geometry" />
        </mxCell>
        <mxCell id="QAnONWeoFSv54y2Q4ifa-5" value="&lt;font style=&quot;font-size: 19px;&quot;&gt;Registar&lt;br&gt;Utente&lt;/font&gt;" style="ellipse;whiteSpace=wrap;html=1;aspect=fixed;" parent="1" vertex="1">
          <mxGeometry x="270" y="100" width="110" height="110" as="geometry" />
        </mxCell>
        <mxCell id="QAnONWeoFSv54y2Q4ifa-6" value="" style="endArrow=none;html=1;rounded=0;entryX=0;entryY=0.5;entryDx=0;entryDy=0;" parent="1" target="QAnONWeoFSv54y2Q4ifa-5" edge="1">
          <mxGeometry width="50" height="50" relative="1" as="geometry">
            <mxPoint x="110" y="380" as="sourcePoint" />
            <mxPoint x="150" y="250" as="targetPoint" />
          </mxGeometry>
        </mxCell>
        <mxCell id="QAnONWeoFSv54y2Q4ifa-7" value="&lt;font style=&quot;font-size: 19px;&quot;&gt;Gerar&lt;br&gt;Relatórios&lt;/font&gt;" style="ellipse;whiteSpace=wrap;html=1;aspect=fixed;" parent="1" vertex="1">
          <mxGeometry x="270" y="460" width="110" height="110" as="geometry" />
        </mxCell>
        <mxCell id="QAnONWeoFSv54y2Q4ifa-8" value="" style="endArrow=none;html=1;rounded=0;" parent="1" target="QAnONWeoFSv54y2Q4ifa-7" edge="1">
          <mxGeometry width="50" height="50" relative="1" as="geometry">
            <mxPoint x="110" y="380" as="sourcePoint" />
            <mxPoint x="190" y="300" as="targetPoint" />
          </mxGeometry>
        </mxCell>
        <mxCell id="QAnONWeoFSv54y2Q4ifa-9" value="" style="endArrow=block;dashed=1;endFill=0;endSize=12;html=1;rounded=0;" parent="1" source="QAnONWeoFSv54y2Q4ifa-10" target="QAnONWeoFSv54y2Q4ifa-7" edge="1">
          <mxGeometry width="160" relative="1" as="geometry">
            <mxPoint x="350" y="337.25" as="sourcePoint" />
            <mxPoint x="500" y="342.75" as="targetPoint" />
          </mxGeometry>
        </mxCell>
        <mxCell id="MhMOBkeQKoX7OT9bnIqv-1" value="&amp;lt;&amp;lt;extend&amp;gt;&amp;gt;" style="edgeLabel;html=1;align=center;verticalAlign=middle;resizable=0;points=[];" parent="QAnONWeoFSv54y2Q4ifa-9" vertex="1" connectable="0">
          <mxGeometry x="-0.3893" relative="1" as="geometry">
            <mxPoint as="offset" />
          </mxGeometry>
        </mxCell>
        <mxCell id="QAnONWeoFSv54y2Q4ifa-10" value="Relatório&lt;br&gt;Colaboradores" style="ellipse;whiteSpace=wrap;html=1;aspect=fixed;" parent="1" vertex="1">
          <mxGeometry x="160" y="640" width="80" height="80" as="geometry" />
        </mxCell>
        <mxCell id="QAnONWeoFSv54y2Q4ifa-11" value="Relatório&lt;br&gt;Dados Estatísticos" style="ellipse;whiteSpace=wrap;html=1;aspect=fixed;" parent="1" vertex="1">
          <mxGeometry x="470" y="730" width="80" height="80" as="geometry" />
        </mxCell>
        <mxCell id="QAnONWeoFSv54y2Q4ifa-12" value="Relatório&lt;br&gt;Consultas" style="ellipse;whiteSpace=wrap;html=1;aspect=fixed;" parent="1" vertex="1">
          <mxGeometry x="320" y="680" width="80" height="80" as="geometry" />
        </mxCell>
        <mxCell id="QAnONWeoFSv54y2Q4ifa-13" value="&lt;font style=&quot;font-size: 19px;&quot;&gt;Criar&lt;br&gt;Calendário&lt;/font&gt;" style="ellipse;whiteSpace=wrap;html=1;aspect=fixed;" parent="1" vertex="1">
          <mxGeometry x="380" y="190" width="110" height="110" as="geometry" />
        </mxCell>
        <mxCell id="QAnONWeoFSv54y2Q4ifa-14" value="&lt;font style=&quot;font-size: 19px;&quot;&gt;Gestão de&lt;br&gt;Equipamentos&lt;/font&gt;" style="ellipse;whiteSpace=wrap;html=1;aspect=fixed;" parent="1" vertex="1">
          <mxGeometry x="370" y="330" width="130" height="130" as="geometry" />
        </mxCell>
        <mxCell id="QAnONWeoFSv54y2Q4ifa-15" value="" style="endArrow=none;html=1;rounded=0;" parent="1" target="QAnONWeoFSv54y2Q4ifa-13" edge="1">
          <mxGeometry width="50" height="50" relative="1" as="geometry">
            <mxPoint x="110" y="380" as="sourcePoint" />
            <mxPoint x="290" y="270" as="targetPoint" />
          </mxGeometry>
        </mxCell>
        <mxCell id="QAnONWeoFSv54y2Q4ifa-16" value="" style="endArrow=none;html=1;rounded=0;" parent="1" source="QAnONWeoFSv54y2Q4ifa-14" edge="1">
          <mxGeometry width="50" height="50" relative="1" as="geometry">
            <mxPoint x="230" y="410" as="sourcePoint" />
            <mxPoint x="110" y="380" as="targetPoint" />
          </mxGeometry>
        </mxCell>
        <mxCell id="QAnONWeoFSv54y2Q4ifa-17" value="" style="endArrow=block;dashed=1;endFill=0;endSize=12;html=1;rounded=0;" parent="1" source="QAnONWeoFSv54y2Q4ifa-12" target="QAnONWeoFSv54y2Q4ifa-7" edge="1">
          <mxGeometry width="160" relative="1" as="geometry">
            <mxPoint x="300" y="600" as="sourcePoint" />
            <mxPoint x="460" y="600" as="targetPoint" />
          </mxGeometry>
        </mxCell>
        <mxCell id="MhMOBkeQKoX7OT9bnIqv-2" value="&amp;lt;&amp;lt;extend&amp;gt;&amp;gt;" style="edgeLabel;html=1;align=center;verticalAlign=middle;resizable=0;points=[];" parent="QAnONWeoFSv54y2Q4ifa-17" vertex="1" connectable="0">
          <mxGeometry x="-0.3554" relative="1" as="geometry">
            <mxPoint as="offset" />
          </mxGeometry>
        </mxCell>
        <mxCell id="QAnONWeoFSv54y2Q4ifa-18" value="" style="endArrow=block;dashed=1;endFill=0;endSize=12;html=1;rounded=0;entryX=1;entryY=1;entryDx=0;entryDy=0;" parent="1" source="QAnONWeoFSv54y2Q4ifa-11" target="QAnONWeoFSv54y2Q4ifa-7" edge="1">
          <mxGeometry width="160" relative="1" as="geometry">
            <mxPoint x="330" y="470" as="sourcePoint" />
            <mxPoint x="490" y="470" as="targetPoint" />
          </mxGeometry>
        </mxCell>
        <mxCell id="MhMOBkeQKoX7OT9bnIqv-3" value="&amp;lt;&amp;lt;extend&amp;gt;&amp;gt;" style="edgeLabel;html=1;align=center;verticalAlign=middle;resizable=0;points=[];" parent="QAnONWeoFSv54y2Q4ifa-18" vertex="1" connectable="0">
          <mxGeometry x="-0.2723" y="1" relative="1" as="geometry">
            <mxPoint y="-1" as="offset" />
          </mxGeometry>
        </mxCell>
        <mxCell id="ZM9wu_UBtsQLSvmdLrs5-1" value="DGS" style="shape=umlActor;verticalLabelPosition=bottom;verticalAlign=top;html=1;" parent="1" vertex="1">
          <mxGeometry x="50" y="790" width="30" height="60" as="geometry" />
        </mxCell>
        <mxCell id="ZM9wu_UBtsQLSvmdLrs5-4" value="" style="endArrow=none;html=1;rounded=0;entryX=0.262;entryY=0.954;entryDx=0;entryDy=0;entryPerimeter=0;" parent="1" target="QAnONWeoFSv54y2Q4ifa-11" edge="1">
          <mxGeometry width="50" height="50" relative="1" as="geometry">
            <mxPoint x="90" y="830" as="sourcePoint" />
            <mxPoint x="440" y="700" as="targetPoint" />
          </mxGeometry>
        </mxCell>
        <mxCell id="ZM9wu_UBtsQLSvmdLrs5-5" value="" style="endArrow=none;html=1;rounded=0;entryX=0;entryY=1;entryDx=0;entryDy=0;" parent="1" target="QAnONWeoFSv54y2Q4ifa-12" edge="1">
          <mxGeometry width="50" height="50" relative="1" as="geometry">
            <mxPoint x="90" y="830" as="sourcePoint" />
            <mxPoint x="140" y="780" as="targetPoint" />
          </mxGeometry>
        </mxCell>
        <mxCell id="ZM9wu_UBtsQLSvmdLrs5-6" value="" style="endArrow=none;html=1;rounded=0;entryX=0.251;entryY=0.946;entryDx=0;entryDy=0;entryPerimeter=0;" parent="1" target="QAnONWeoFSv54y2Q4ifa-10" edge="1">
          <mxGeometry width="50" height="50" relative="1" as="geometry">
            <mxPoint x="90" y="830" as="sourcePoint" />
            <mxPoint x="140" y="780" as="targetPoint" />
          </mxGeometry>
        </mxCell>
        <mxCell id="gDNzT2ltJoEjd0pcHR_6-1" value="Text" style="text;html=1;align=center;verticalAlign=middle;resizable=0;points=[];autosize=1;strokeColor=none;fillColor=none;" parent="1" vertex="1">
          <mxGeometry x="890" y="398" width="40" height="30" as="geometry" />
        </mxCell>
      </root>
    </mxGraphModel>
  </diagram>
  <diagram id="XhdVeTx2Ln5b7P_B0mx9" name="Página-3">
    <mxGraphModel dx="1434" dy="699" grid="1" gridSize="10" guides="1" tooltips="1" connect="1" arrows="1" fold="1" page="1" pageScale="1" pageWidth="827" pageHeight="1169" math="0" shadow="0">
      <root>
        <mxCell id="0" />
        <mxCell id="1" parent="0" />
        <mxCell id="zQDAYN1wuLQS0TeInhjL-1" value="Motorista" style="shape=umlActor;verticalLabelPosition=bottom;verticalAlign=top;html=1;outlineConnect=0;" parent="1" vertex="1">
          <mxGeometry x="60" y="320" width="30" height="60" as="geometry" />
        </mxCell>
        <mxCell id="zQDAYN1wuLQS0TeInhjL-3" value="" style="rounded=0;whiteSpace=wrap;html=1;" parent="1" vertex="1">
          <mxGeometry x="120" y="130" width="630" height="530" as="geometry" />
        </mxCell>
        <mxCell id="zQDAYN1wuLQS0TeInhjL-7" value="&lt;font style=&quot;font-size: 19px;&quot;&gt;Acesso&lt;br&gt;Calendário&lt;/font&gt;" style="ellipse;whiteSpace=wrap;html=1;aspect=fixed;" parent="1" vertex="1">
          <mxGeometry x="225" y="180" width="140" height="140" as="geometry" />
        </mxCell>
        <mxCell id="zQDAYN1wuLQS0TeInhjL-8" value="" style="endArrow=none;html=1;rounded=0;" parent="1" target="zQDAYN1wuLQS0TeInhjL-7" edge="1">
          <mxGeometry width="50" height="50" relative="1" as="geometry">
            <mxPoint x="100" y="370" as="sourcePoint" />
            <mxPoint x="150" y="320" as="targetPoint" />
          </mxGeometry>
        </mxCell>
        <mxCell id="ha9soHPIU7hjE6p_GVuu-1" value="&lt;font style=&quot;font-size: 19px;&quot;&gt;Registar&lt;br&gt;Despesas&lt;/font&gt;" style="ellipse;whiteSpace=wrap;html=1;aspect=fixed;" parent="1" vertex="1">
          <mxGeometry x="230" y="380" width="130" height="130" as="geometry" />
        </mxCell>
        <mxCell id="ha9soHPIU7hjE6p_GVuu-2" value="" style="endArrow=none;html=1;rounded=0;" parent="1" target="ha9soHPIU7hjE6p_GVuu-1" edge="1">
          <mxGeometry width="50" height="50" relative="1" as="geometry">
            <mxPoint x="100" y="370" as="sourcePoint" />
            <mxPoint x="170" y="360" as="targetPoint" />
          </mxGeometry>
        </mxCell>
        <mxCell id="ha9soHPIU7hjE6p_GVuu-3" value="" style="endArrow=block;dashed=1;endFill=0;endSize=12;html=1;rounded=0;exitX=1;exitY=0;exitDx=0;exitDy=0;" parent="1" source="ha9soHPIU7hjE6p_GVuu-1" target="ha9soHPIU7hjE6p_GVuu-4" edge="1">
          <mxGeometry width="160" relative="1" as="geometry">
            <mxPoint x="370" y="430" as="sourcePoint" />
            <mxPoint x="490" y="430" as="targetPoint" />
          </mxGeometry>
        </mxCell>
        <mxCell id="IWsuGDMKY-UALLxSITiT-1" value="&amp;lt;&amp;lt;include&amp;gt;&amp;gt;" style="edgeLabel;html=1;align=center;verticalAlign=middle;resizable=0;points=[];" parent="ha9soHPIU7hjE6p_GVuu-3" vertex="1" connectable="0">
          <mxGeometry x="0.237" y="-2" relative="1" as="geometry">
            <mxPoint as="offset" />
          </mxGeometry>
        </mxCell>
        <mxCell id="ha9soHPIU7hjE6p_GVuu-4" value="&lt;font style=&quot;font-size: 19px;&quot;&gt;Combustível&lt;/font&gt;" style="ellipse;whiteSpace=wrap;html=1;aspect=fixed;" parent="1" vertex="1">
          <mxGeometry x="490" y="250" width="110" height="110" as="geometry" />
        </mxCell>
        <mxCell id="ha9soHPIU7hjE6p_GVuu-5" value="&lt;font style=&quot;font-size: 19px;&quot;&gt;Portagens&lt;br&gt;(se aplicável)&lt;br&gt;&lt;/font&gt;" style="ellipse;whiteSpace=wrap;html=1;aspect=fixed;" parent="1" vertex="1">
          <mxGeometry x="540" y="375" width="120" height="120" as="geometry" />
        </mxCell>
        <mxCell id="r8WhObS8hoLC30MIOhvL-1" value="" style="endArrow=block;dashed=1;endFill=0;endSize=12;html=1;rounded=0;entryX=0;entryY=0.5;entryDx=0;entryDy=0;" parent="1" source="ha9soHPIU7hjE6p_GVuu-1" target="ha9soHPIU7hjE6p_GVuu-5" edge="1">
          <mxGeometry width="160" relative="1" as="geometry">
            <mxPoint x="370" y="438" as="sourcePoint" />
            <mxPoint x="429" y="435" as="targetPoint" />
          </mxGeometry>
        </mxCell>
        <mxCell id="IWsuGDMKY-UALLxSITiT-2" value="&amp;lt;&amp;lt;include&amp;gt;&amp;gt;" style="edgeLabel;html=1;align=center;verticalAlign=middle;resizable=0;points=[];" parent="r8WhObS8hoLC30MIOhvL-1" vertex="1" connectable="0">
          <mxGeometry x="0.2241" y="2" relative="1" as="geometry">
            <mxPoint x="-8" as="offset" />
          </mxGeometry>
        </mxCell>
        <mxCell id="r8WhObS8hoLC30MIOhvL-2" value="" style="endArrow=block;dashed=1;endFill=0;endSize=12;html=1;rounded=0;exitX=0.769;exitY=0.923;exitDx=0;exitDy=0;exitPerimeter=0;" parent="1" source="ha9soHPIU7hjE6p_GVuu-1" target="r8WhObS8hoLC30MIOhvL-3" edge="1">
          <mxGeometry width="160" relative="1" as="geometry">
            <mxPoint x="340" y="540" as="sourcePoint" />
            <mxPoint x="490" y="530" as="targetPoint" />
          </mxGeometry>
        </mxCell>
        <mxCell id="IWsuGDMKY-UALLxSITiT-3" value="&amp;lt;&amp;lt;include&amp;gt;&amp;gt;" style="edgeLabel;html=1;align=center;verticalAlign=middle;resizable=0;points=[];" parent="r8WhObS8hoLC30MIOhvL-2" vertex="1" connectable="0">
          <mxGeometry x="-0.2952" y="-2" relative="1" as="geometry">
            <mxPoint as="offset" />
          </mxGeometry>
        </mxCell>
        <mxCell id="r8WhObS8hoLC30MIOhvL-3" value="&lt;font style=&quot;font-size: 19px;&quot;&gt;Mapa de km&lt;/font&gt;" style="ellipse;whiteSpace=wrap;html=1;aspect=fixed;" parent="1" vertex="1">
          <mxGeometry x="460" y="530" width="100" height="100" as="geometry" />
        </mxCell>
      </root>
    </mxGraphModel>
  </diagram>
</mxfile>
